<svg data-v-fde0c5aa="" xmlns="http://www.w3.org/2000/svg" viewBox="0 0 300 300" class="font"><!----><defs data-v-fde0c5aa=""><!----></defs><rect data-v-fde0c5aa="" fill="#E1F3FC" x="0" y="0" width="300px" height="300px" class="logo-background-square"></rect><defs data-v-fde0c5aa=""><linearGradient data-v-fde0c5aa="" gradientTransform="rotate(25)" id="a891e43e-09ad-4f3f-9cea-da242feae999" x1="0%" y1="0%" x2="100%" y2="0%"><stop data-v-fde0c5aa="" offset="0%" stop-color="#0076DD" stop-opacity="1"></stop><stop data-v-fde0c5aa="" offset="100%" stop-color="#00CDE9" stop-opacity="1"></stop></linearGradient></defs><g data-v-fde0c5aa="" id="27a7d819-bdc9-4442-b2ea-7a3098b52f55" fill="url(#a891e43e-09ad-4f3f-9cea-da242feae999)" transform="matrix(2.2577997918045862,0,0,2.2577997918045862,36.99712618000563,127.59133771230117)"><path d="M5.81 3.98C5.36 3.92 5.01 3.92 4.49 3.92L1.33 3.92L1.33 13.58L2.87 13.58L2.87 9.77L4.49 9.77C5.01 9.77 5.36 9.77 5.81 9.72C7.21 9.53 8.36 8.55 8.36 6.85C8.36 5.14 7.32 4.17 5.81 3.98ZM5.52 8.47C5.26 8.51 4.93 8.53 4.54 8.53L2.87 8.53L2.87 5.17L4.54 5.17C4.93 5.17 5.26 5.18 5.52 5.22C6.19 5.35 6.73 5.82 6.73 6.85C6.73 7.87 6.19 8.34 5.52 8.47ZM13.79 13.58L15.32 13.58C15.20 12.75 15.18 12.25 15.18 11.69L15.18 9.07C15.18 8.72 15.16 8.33 15.13 8.02C15.01 6.76 14.25 5.95 12.33 5.95C10.64 5.95 9.42 6.87 9.32 8.50L10.86 8.50C10.95 7.57 11.41 7.07 12.31 7.07C13.19 7.07 13.57 7.49 13.61 8.09C13.64 8.37 13.64 8.62 13.64 8.90L13.64 9.09L13.16 9.09C10.35 9.09 9.03 9.98 9.03 11.63C9.03 13.02 10.11 13.78 11.42 13.78C12.12 13.78 12.77 13.65 13.27 13.30L13.65 12.50ZM11.98 12.66C11.17 12.66 10.65 12.29 10.65 11.51C10.65 10.37 11.83 9.97 13.64 10.11L13.64 10.79C13.64 12.00 12.95 12.66 11.98 12.66ZM23.97 6.15L22.43 6.15L22.43 7.15L21.94 6.41C21.56 6.12 20.79 5.95 20.17 5.95C18.26 5.95 16.58 7.24 16.58 9.95C16.58 12.14 17.82 13.71 19.96 13.71C20.72 13.71 21.45 13.48 21.87 13.15L22.43 12.33L22.43 12.49C22.43 12.75 22.43 13.02 22.41 13.34C22.36 14.67 21.59 15.40 20.24 15.40C19.10 15.40 18.41 14.85 18.31 14.06L18.30 13.93L16.79 13.93L16.80 14.07C16.95 15.67 18.09 16.56 20.23 16.56C22.47 16.56 23.87 15.43 23.95 13.17C23.97 12.77 23.97 12.19 23.97 11.73ZM20.27 12.59C18.94 12.59 18.20 11.42 18.20 9.81C18.20 7.97 19.12 7.07 20.34 7.07C21.34 7.07 22.43 7.74 22.43 9.55L22.43 9.87C22.43 11.86 21.43 12.59 20.27 12.59ZM32.34 9.67C32.34 7.57 31.18 5.95 29.02 5.95C26.88 5.95 25.38 7.53 25.38 9.88C25.38 12.52 26.88 13.78 28.87 13.78C30.49 13.78 31.91 12.94 32.23 11.17L30.67 11.17C30.52 12.11 29.82 12.66 28.92 12.66C27.92 12.66 27.10 12.07 26.98 10.29L32.31 10.29C32.34 10.02 32.34 9.81 32.34 9.67ZM28.97 7.07C30.04 7.07 30.65 7.84 30.76 9.21L26.99 9.21C27.16 7.78 27.92 7.07 28.97 7.07ZM36.20 5.95C34.55 5.95 33.46 6.79 33.46 8.18C33.46 9.48 34.47 10.05 35.83 10.40C37.09 10.74 37.59 11.09 37.59 11.73C37.59 12.38 37.02 12.68 36.30 12.68C35.53 12.68 34.90 12.31 34.72 11.35L33.17 11.35C33.38 13.03 34.59 13.78 36.25 13.78C37.87 13.78 39.14 13.06 39.14 11.62C39.14 10.30 38.29 9.66 36.67 9.24C35.56 8.95 35.01 8.67 35.01 7.99C35.01 7.43 35.36 7.03 36.09 7.03C36.85 7.03 37.31 7.49 37.46 8.27L39.03 8.27C38.86 6.92 37.91 5.95 36.20 5.95ZM42.64 12.35L44.77 10.25C46.47 8.60 47.14 7.70 47.14 6.43C47.14 4.90 46.10 3.71 44.06 3.71C42.01 3.71 40.77 4.82 40.57 6.86L40.56 7L42.10 7L42.11 6.86C42.24 5.59 42.78 4.89 43.89 4.89C44.94 4.89 45.47 5.63 45.47 6.57C45.47 7.49 44.94 8.19 43.72 9.39L40.35 12.80L40.35 13.58L47.08 13.58L47.08 12.35ZM53.73 3.98C53.28 3.92 52.93 3.92 52.42 3.92L49.25 3.92L49.25 13.58L50.79 13.58L50.79 9.77L52.42 9.77C52.93 9.77 53.28 9.77 53.73 9.72C55.13 9.53 56.28 8.55 56.28 6.85C56.28 5.14 55.24 4.17 53.73 3.98ZM53.44 8.47C53.19 8.51 52.85 8.53 52.46 8.53L50.79 8.53L50.79 5.17L52.46 5.17C52.85 5.17 53.19 5.18 53.44 5.22C54.11 5.35 54.66 5.82 54.66 6.85C54.66 7.87 54.11 8.34 53.44 8.47ZM60.63 5.95C58.13 5.95 56.87 7.69 56.87 9.86C56.87 12.03 58.13 13.78 60.63 13.78C63.13 13.78 64.40 12.03 64.40 9.86C64.40 7.69 63.13 5.95 60.63 5.95ZM60.63 12.66C59.28 12.66 58.49 11.54 58.49 9.86C58.49 8.18 59.28 7.07 60.63 7.07C61.98 7.07 62.76 8.18 62.76 9.86C62.76 11.54 61.98 12.66 60.63 12.66ZM68.80 5.95C66.85 5.95 65.20 7.36 65.20 9.90C65.20 12.54 66.67 13.78 68.61 13.78C70.36 13.78 71.65 12.89 72.00 11.12L70.43 11.12C70.21 12.12 69.58 12.66 68.70 12.66C67.66 12.66 66.82 11.80 66.82 9.79C66.82 7.92 67.68 7.07 68.75 7.07C69.66 7.07 70.27 7.59 70.49 8.72L72.04 8.72C71.86 7.08 70.67 5.95 68.80 5.95ZM75.57 10.53L78.09 13.58L80.09 13.58L76.66 9.63L80.05 6.15L78.16 6.15L74.91 9.73L74.91 3.29L73.37 3.29L73.37 13.58L74.91 13.58L74.91 11.26ZM87.28 9.67C87.28 7.57 86.11 5.95 83.96 5.95C81.82 5.95 80.32 7.53 80.32 9.88C80.32 12.52 81.82 13.78 83.80 13.78C85.43 13.78 86.84 12.94 87.16 11.17L85.61 11.17C85.46 12.11 84.76 12.66 83.86 12.66C82.85 12.66 82.04 12.07 81.91 10.29L87.25 10.29C87.28 10.02 87.28 9.81 87.28 9.67ZM83.90 7.07C84.98 7.07 85.58 7.84 85.69 9.21L81.93 9.21C82.10 7.78 82.85 7.07 83.90 7.07ZM90.58 7.28L92.04 7.28L92.04 6.20L90.58 6.20L90.58 4.42L89.05 4.42L89.05 6.20L88.00 6.20L88.00 7.28L89.05 7.28L89.05 11.31C89.05 11.73 89.05 12.05 89.07 12.31C89.14 13.29 89.64 13.72 90.80 13.72C91.18 13.72 91.55 13.69 91.94 13.64L91.94 12.57C90.93 12.67 90.65 12.52 90.59 11.79C90.58 11.59 90.58 11.42 90.58 11.17ZM95.83 5.95C94.18 5.95 93.09 6.79 93.09 8.18C93.09 9.48 94.09 10.05 95.45 10.40C96.71 10.74 97.22 11.09 97.22 11.73C97.22 12.38 96.64 12.68 95.93 12.68C95.16 12.68 94.53 12.31 94.35 11.35L92.79 11.35C93.00 13.03 94.22 13.78 95.87 13.78C97.50 13.78 98.77 13.06 98.77 11.62C98.77 10.30 97.92 9.66 96.29 9.24C95.19 8.95 94.64 8.67 94.64 7.99C94.64 7.43 94.99 7.03 95.72 7.03C96.47 7.03 96.94 7.49 97.09 8.27L98.66 8.27C98.49 6.92 97.54 5.95 95.83 5.95Z"></path></g><!----><!----></svg>